<?xml version="1.0" encoding="UTF-8" standalone="no"?><!DOCTYPE svg PUBLIC "-//W3C//DTD SVG 1.1//EN" "http://www.w3.org/Graphics/SVG/1.1/DTD/svg11.dtd"><!-- Generated by graphviz version 2.40.1 (20161225.0304)
 --><!-- Title: %0 Pages: 1 --><svg xmlns="http://www.w3.org/2000/svg" xmlns:xlink="http://www.w3.org/1999/xlink" width="886pt" height="361pt" viewBox="0.00 0.00 886.45 361.17">
<g id="graph0" class="graph" transform="scale(1 1) rotate(0) translate(4 357.1722)">
<title>%0</title>
<polygon fill="#ffffff" stroke="transparent" points="-4,4 -4,-357.1722 882.4511,-357.1722 882.4511,4 -4,4"/>
<!-- epsilon -->
<g id="node1" class="node">
<title>epsilon</title>
<ellipse fill="none" stroke="#000000" cx="851.4511" cy="-202.3722" rx="27" ry="18"/>
<text text-anchor="middle" x="851.4511" y="-198.1722" font-family="Times,serif" font-size="14.00" fill="#000000">ε</text>
</g>
<!-- glitch -->
<g id="node2" class="node">
<title>glitch</title>
<ellipse fill="none" stroke="#000000" cx="33.0312" cy="-156.3722" rx="33.0624" ry="18"/>
<text text-anchor="middle" x="33.0312" y="-152.1722" font-family="Times,serif" font-size="14.00" fill="#000000">glitch</text>
</g>
<!-- glitch&#45;&gt;epsilon -->
<g id="edge4" class="edge">
<title>glitch-&gt;epsilon</title>
<path fill="none" stroke="#694dff" d="M36.171,-174.4126C43.1434,-212.16 61.1288,-297.3885 84.0623,-314.3722 144.0998,-358.8335 788.7449,-326.4857 806.4511,-314.3722 833.8125,-295.6532 844.5418,-257.2973 848.7463,-230.7238"/>
<polygon fill="#694dff" stroke="#694dff" points="852.258,-230.874 850.139,-220.4932 845.322,-229.9297 852.258,-230.874"/>
<text text-anchor="middle" x="388.8675" y="-340.5722" font-family="Times,serif" font-size="14.00" fill="#694dff">reserved on Glitch</text>
</g>
<!-- glitch&#45;&gt;epsilon -->
<g id="edge10" class="edge">
<title>glitch-&gt;epsilon</title>
<path fill="none" stroke="#cb0000" d="M57.9059,-168.463C66.1274,-172.2213 75.3906,-176.2052 84.0623,-179.3722 315.3711,-263.8483 383.635,-305.9297 628.6593,-281.3722 708.8796,-273.3321 734.9855,-282.6897 806.4511,-245.3722 815.5957,-240.5971 824.178,-233.4034 831.3458,-226.2591"/>
<polygon fill="#cb0000" stroke="#cb0000" points="834.2136,-228.3195 838.528,-218.6429 829.1208,-223.517 834.2136,-228.3195"/>
<text text-anchor="middle" x="388.8675" y="-290.5722" font-family="Times,serif" font-size="14.00" fill="#cb0000">unrelated on npm</text>
</g>
<!-- snail -->
<g id="node3" class="node">
<title>snail</title>
<ellipse fill="none" stroke="#000000" cx="257.1662" cy="-157.3722" rx="29.0509" ry="18"/>
<text text-anchor="middle" x="257.1662" y="-153.1722" font-family="Times,serif" font-size="14.00" fill="#000000">snail</text>
</g>
<!-- glitch&#45;&gt;snail -->
<g id="edge1" class="edge">
<title>glitch-&gt;snail</title>
<path fill="none" stroke="#694dff" d="M65.9672,-157.8525C71.9858,-158.0691 78.2116,-158.2576 84.0623,-158.3722 129.8096,-159.2683 182.3695,-158.7448 217.4578,-158.1733"/>
<polygon fill="#694dff" stroke="#694dff" points="217.8213,-161.6677 227.7595,-157.996 217.7007,-154.6687 217.8213,-161.6677"/>
<text text-anchor="middle" x="135.7636" y="-162.5722" font-family="Times,serif" font-size="14.00" fill="#694dff">reserved on Glitch</text>
</g>
<!-- glitch&#45;&gt;snail -->
<g id="edge7" class="edge">
<title>glitch-&gt;snail</title>
<path fill="none" stroke="#cb0000" d="M54.5045,-142.5877C63.3031,-137.713 73.8137,-132.8325 84.0623,-130.3722 128.7494,-119.6444 142.2906,-121.9283 187.4649,-130.3722 200.1214,-132.7379 213.4373,-137.3256 225.0003,-142.0575"/>
<polygon fill="#cb0000" stroke="#cb0000" points="223.6778,-145.2986 234.248,-146.0207 226.4352,-138.8645 223.6778,-145.2986"/>
<polygon fill="#ffff00" stroke="transparent" points="104.7636,-132.3722 104.7636,-152.3722 166.7636,-152.3722 166.7636,-132.3722 104.7636,-132.3722"/>
<text text-anchor="start" x="106.596" y="-137.7722" font-family="Times,serif" font-size="14.00" fill="#cb0000">us on npm</text>
</g>
<!-- cli -->
<g id="node4" class="node">
<title>cli</title>
<ellipse fill="none" stroke="#000000" cx="548.7634" cy="-70.3722" rx="27" ry="18"/>
<text text-anchor="middle" x="548.7634" y="-66.1722" font-family="Times,serif" font-size="14.00" fill="#000000">cli</text>
</g>
<!-- glitch&#45;&gt;cli -->
<g id="edge2" class="edge">
<title>glitch-&gt;cli</title>
<path fill="none" stroke="#694dff" d="M51.0346,-140.8774C60.4244,-133.3529 72.3682,-124.6132 84.0623,-118.3722 185.0614,-64.47 214.0392,-51.7635 326.8675,-32.3722 381.1823,-23.0373 396.6982,-22.2275 450.8675,-32.3722 474.215,-36.7446 499.1547,-46.5092 518.0183,-55.0449"/>
<polygon fill="#694dff" stroke="#694dff" points="516.7455,-58.313 527.2883,-59.3614 519.7004,-51.9672 516.7455,-58.313"/>
<text text-anchor="middle" x="257.1662" y="-65.5722" font-family="Times,serif" font-size="14.00" fill="#694dff">reserved on Glitch</text>
</g>
<!-- glitch&#45;&gt;cli -->
<g id="edge8" class="edge">
<title>glitch-&gt;cli</title>
<path fill="none" stroke="#cb0000" d="M38.8978,-138.6553C46.4188,-118.428 61.2751,-85.54 84.0623,-65.3722 127.7343,-26.7203 148.2462,-26.8518 205.4649,-15.5722 312.5032,5.5285 345.2272,5.8778 450.8675,-21.3722 475.8561,-27.818 501.877,-41.2108 520.8054,-52.3679"/>
<polygon fill="#cb0000" stroke="#cb0000" points="519.1248,-55.4419 529.4922,-57.6253 522.7492,-49.4532 519.1248,-55.4419"/>
<text text-anchor="middle" x="257.1662" y="-20.5722" font-family="Times,serif" font-size="14.00" fill="#cb0000">unrelated on npm</text>
</g>
<!-- snail&#45;&gt;epsilon -->
<g id="edge5" class="edge">
<title>snail-&gt;epsilon</title>
<path fill="none" stroke="#694dff" d="M270.4793,-173.4646C283.2788,-187.6258 304.009,-207.3521 326.8675,-216.3722 525.1373,-294.6107 596.393,-252.535 806.4511,-216.3722 810.135,-215.738 813.9373,-214.8842 817.6983,-213.9095"/>
<polygon fill="#694dff" stroke="#694dff" points="818.7998,-217.2348 827.4481,-211.1145 816.8708,-210.5058 818.7998,-217.2348"/>
<text text-anchor="middle" x="548.7634" y="-264.5722" font-family="Times,serif" font-size="14.00" fill="#694dff">unknown (private) on Glitch</text>
</g>
<!-- snail&#45;&gt;epsilon -->
<g id="edge11" class="edge">
<title>snail-&gt;epsilon</title>
<path fill="none" stroke="#cb0000" d="M278.6888,-169.588C292.0911,-176.5145 309.9462,-184.5423 326.8675,-188.3722 505.9989,-228.9155 728.3071,-214.2871 814.7111,-206.2378"/>
<polygon fill="#cb0000" stroke="#cb0000" points="815.1805,-209.709 824.8003,-205.2695 814.5116,-202.741 815.1805,-209.709"/>
<text text-anchor="middle" x="548.7634" y="-219.5722" font-family="Times,serif" font-size="14.00" fill="#cb0000">unrelated on npm</text>
</g>
<!-- snail&#45;&gt;epsilon -->
<g id="edge14" class="edge">
<title>snail-&gt;epsilon</title>
<path fill="none" stroke="#00a000" d="M286.3177,-160.0536C298.7997,-161.1572 313.5426,-162.4015 326.8675,-163.3722 460.8804,-173.135 494.6871,-171.0659 628.6593,-181.3722 694.2853,-186.4207 770.6251,-193.9843 814.7563,-198.5231"/>
<polygon fill="#00a000" stroke="#00a000" points="814.4202,-202.0069 824.727,-199.5535 815.1398,-195.044 814.4202,-202.0069"/>
<polygon fill="#ffff00" stroke="transparent" points="490.7634,-183.3722 490.7634,-203.3722 607.7634,-203.3722 607.7634,-183.3722 490.7634,-183.3722"/>
<text text-anchor="start" x="492.688" y="-188.7722" font-family="Times,serif" font-size="14.00" fill="#00a000">us on command line</text>
</g>
<!-- snail&#45;&gt;cli -->
<g id="edge3" class="edge">
<title>snail-&gt;cli</title>
<path fill="none" stroke="#694dff" d="M284.204,-149.9243C297.0751,-146.4984 312.7133,-142.5085 326.8675,-139.3722 381.5913,-127.2462 397.511,-133.5422 450.8675,-116.3722 474.5705,-108.7446 499.9828,-96.6776 518.9747,-86.8164"/>
<polygon fill="#694dff" stroke="#694dff" points="520.8066,-89.807 528.0117,-82.0392 517.5352,-83.6184 520.8066,-89.807"/>
<polygon fill="#ffff00" stroke="transparent" points="352.8675,-141.3722 352.8675,-161.3722 424.8675,-161.3722 424.8675,-141.3722 352.8675,-141.3722"/>
<text text-anchor="start" x="354.6487" y="-146.7722" font-family="Times,serif" font-size="14.00" fill="#694dff">us on Glitch</text>
</g>
<!-- snail&#45;&gt;cli -->
<g id="edge9" class="edge">
<title>snail-&gt;cli</title>
<path fill="none" stroke="#cb0000" d="M270.2151,-141.1506C282.9815,-126.5441 303.8233,-105.8419 326.8675,-95.5722 343.3209,-88.2397 452.8239,-78.2729 511.608,-73.3607"/>
<polygon fill="#cb0000" stroke="#cb0000" points="511.9396,-76.8453 521.6168,-72.5322 511.3621,-69.8691 511.9396,-76.8453"/>
<text text-anchor="middle" x="388.8675" y="-99.5722" font-family="Times,serif" font-size="14.00" fill="#cb0000">unrelated on npm</text>
</g>
<!-- snail&#45;&gt;cli -->
<g id="edge13" class="edge">
<title>snail-&gt;cli</title>
<path fill="none" stroke="#171515" d="M262.8213,-139.2874C271.8023,-114.0615 291.9787,-69.2834 326.8675,-50.3722 387.4092,-17.556 471.0635,-40.0568 516.4021,-56.8058"/>
<polygon fill="#171515" stroke="#171515" points="515.4145,-60.1754 526.005,-60.4809 517.9166,-53.6378 515.4145,-60.1754"/>
<polygon fill="#ffff00" stroke="transparent" points="328.8675,-52.3722 328.8675,-72.3722 448.8675,-72.3722 448.8675,-52.3722 328.8675,-52.3722"/>
<text text-anchor="start" x="330.7388" y="-57.7722" font-family="Times,serif" font-size="14.00" fill="#171515">us on GitHub (wh0/)</text>
</g>
<!-- cli&#45;&gt;epsilon -->
<g id="edge6" class="edge">
<title>cli-&gt;epsilon</title>
<path fill="none" stroke="#694dff" d="M574.8938,-75.4532C594.5868,-79.2153 622.2755,-84.3618 646.6593,-88.3722 717.4712,-100.0185 748.356,-69.4424 806.4511,-111.5722 827.1643,-126.5931 838.8662,-153.8507 845.1106,-174.5945"/>
<polygon fill="#694dff" stroke="#694dff" points="841.7976,-175.7472 847.8254,-184.4602 848.5468,-173.89 841.7976,-175.7472"/>
<text text-anchor="middle" x="726.5552" y="-115.5722" font-family="Times,serif" font-size="14.00" fill="#694dff">unknown (private) on Glitch</text>
</g>
<!-- cli&#45;&gt;epsilon -->
<g id="edge12" class="edge">
<title>cli-&gt;epsilon</title>
<path fill="none" stroke="#cb0000" d="M572.4936,-61.6607C621.4698,-45.3342 735.1199,-16.1837 806.4511,-67.5722 824.0334,-80.2388 838.6742,-138.9907 846.1319,-174.6191"/>
<polygon fill="#cb0000" stroke="#cb0000" points="842.7038,-175.3255 848.1264,-184.4275 849.5635,-173.9306 842.7038,-175.3255"/>
<text text-anchor="middle" x="726.5552" y="-72.5722" font-family="Times,serif" font-size="14.00" fill="#cb0000">unrelated on npm</text>
</g>
</g>
</svg>