<svg xmlns="http://www.w3.org/2000/svg" viewBox="0 51 620 517.73">
  <g fill="#f0f0f0">
    <path d="M610.292 397.689C605.332 381.133 603.673 384.441 613.595 361.267C617.843 351.369 620.023 340.704 620 329.929C619.988 328.648 619.659 327.391 619.042 326.269C618.425 325.147 617.539 324.196 616.465 323.502C615.391 322.808 614.161 322.392 612.887 322.291C611.612 322.19 610.333 322.408 609.163 322.925C593.98 329.528 565.03 342.075 550.791 348.019C530.961 356.297 509.474 359.606 484.684 351.327C459.893 343.049 423.938 324.415 390.884 316.953C368.768 311.969 354.586 307.615 331.554 305.108C335.671 304.707 361.963 299.565 388.411 291.702C414.357 283.617 439.879 274.228 464.883 263.573C494.62 250.324 514.463 253.633 535.936 261.911C548.932 266.924 573.979 278.568 591.779 287.019C598.927 290.399 609.335 283.782 605.904 276.663C599.57 263.573 597.926 241.215 606.189 226.319C615.582 209.376 613.624 205.623 608.663 189.081C603.702 172.538 602.058 175.832 611.965 152.658C615.688 143.987 617.828 134.716 618.284 125.288C618.345 123.601 617.979 121.926 617.221 120.419C616.463 118.912 615.338 117.62 613.949 116.665C612.56 115.709 610.953 115.12 609.277 114.953C607.601 114.785 605.909 115.044 604.359 115.706C588.633 122.552 562.471 133.853 549.161 139.41C529.331 147.688 507.844 150.997 483.054 142.718L382.121 109.003C380.128 108.363 378.397 107.091 377.188 105.379C372.828 99.2063 361.005 83.7522 349.181 79.7992C334.313 74.8292 279.772 58.3153 259.943 54.9638C240.114 51.6123 226.889 46.6853 216.967 58.2723C209.648 66.8659 198.01 80.7301 192.406 87.4331C191.41 88.6087 190.156 89.5382 188.743 90.1493C187.329 90.7604 185.794 91.0366 184.257 90.9565C168.016 90.2117 114.119 90.1974 61.6076 117.883C14.9724 142.475 3.13493 180.731 0.132667 198.806C-0.0809087 200.096 -0.0362554 201.416 0.264032 202.689C0.564319 203.962 1.11425 205.163 1.88183 206.221C2.64942 207.279 3.61935 208.174 4.73522 208.853C5.85109 209.533 7.09062 209.983 8.38174 210.178C22.2207 212.398 46.6248 217.669 46.3246 227.164C46.0959 234.469 34.4156 239.768 23.9935 243.034C22.3136 243.583 20.8089 244.569 19.6323 245.889C18.4558 247.21 17.6493 248.82 17.2949 250.554C16.9405 252.289 17.0509 254.086 17.6147 255.764C18.1786 257.442 19.1759 258.94 20.5052 260.106C36.3314 273.956 68.6557 295.082 123.197 305.108C102.346 309.433 82.1894 316.614 63.2946 326.449C14.6865 352.043 3.90694 392.462 1.49083 409.52C1.33449 410.539 1.38032 411.578 1.62568 412.579C1.87104 413.58 2.31112 414.523 2.9207 415.353C3.53028 416.183 4.29738 416.885 5.17806 417.417C6.05874 417.95 7.03568 418.303 8.05292 418.457C21.3772 420.477 48.3118 425.776 48.0116 435.759C47.7543 443.894 33.3291 449.523 22.2779 452.66C20.9513 453.027 19.7463 453.742 18.787 454.731C17.8276 455.72 17.1485 456.947 16.8194 458.286C16.4904 459.625 16.5233 461.027 16.9148 462.349C17.3063 463.672 18.0422 464.865 19.0469 465.808C36.36 482.035 79.1922 512.528 160.868 518.544C173.392 519.46 187.002 519.833 200.898 519.818C212.779 535.573 234.18 557.472 265.504 564.806C289.208 570.363 303.862 569.102 312.425 566.625C313.805 566.203 315.07 565.467 316.12 564.476C317.17 563.484 317.978 562.263 318.48 560.908C318.982 559.552 319.166 558.099 319.015 556.661C318.865 555.223 318.386 553.839 317.615 552.617L294.74 515.378C314.084 513.774 327.822 512.27 330.567 511.97C330.9 511.928 331.229 511.866 331.554 511.783C339.202 509.864 438.006 484.9 466.599 472.167C496.35 458.919 516.179 462.227 537.666 470.506C551.648 475.891 579.612 488.996 597.454 497.489C603.273 500.254 610.321 495.012 608.334 488.896C603.773 474.673 602.129 448.191 607.905 434.943C615.568 417.183 615.239 414.246 610.292 397.689ZM97.7205 206.368C87.2126 206.368 78.6633 196.7 78.6633 184.884C78.6633 173.068 87.2126 163.314 97.7205 163.314C108.228 163.314 116.778 172.91 116.778 184.798C116.778 196.686 108.228 206.368 97.7205 206.368ZM97.7205 410.967C87.2126 410.967 78.6633 401.299 78.6633 389.397C78.6633 377.495 87.2412 367.913 97.7205 367.913C108.2 367.913 116.778 377.581 116.778 389.397C116.778 401.213 108.228 410.967 97.7205 410.967V410.967ZM191.82 404.507C190.233 427.036 188.403 435.043 180.897 452.115C179.944 454.252 178.392 456.065 176.431 457.336C174.469 458.607 172.182 459.281 169.846 459.277C168.165 459.281 166.503 458.925 164.971 458.231C162.105 456.917 159.857 454.544 158.698 451.607C157.539 448.671 157.558 445.399 158.752 442.476C163.928 429.314 166.286 423.298 167.73 402.788C168.717 388.652 160.825 376.907 154.864 369.302C153 366.779 152.188 363.629 152.599 360.517C153.009 357.405 154.611 354.575 157.065 352.624C159.519 350.672 162.634 349.753 165.752 350.059C168.87 350.364 171.748 351.872 173.778 354.263L174.092 354.664C190.162 374.945 192.592 392.963 191.82 404.507ZM192.034 191.96C191.334 210.464 189.447 222.954 181.04 239.854C180.053 241.943 178.501 243.712 176.56 244.96C174.619 246.208 172.367 246.886 170.061 246.915C168.386 246.917 166.73 246.566 165.2 245.884C163.72 245.229 162.385 244.285 161.273 243.107C160.161 241.929 159.294 240.541 158.724 239.024C158.161 237.552 157.899 235.983 157.953 234.408C158.007 232.834 158.376 231.286 159.038 229.857C164.757 217.611 166.472 211.238 167.931 190.384C168.917 176.276 161.025 164.517 155.064 156.898C153.254 154.376 152.481 151.253 152.905 148.176C153.329 145.1 154.918 142.304 157.343 140.368C159.767 138.432 162.842 137.504 165.931 137.776C169.019 138.049 171.885 139.5 173.935 141.83C181.098 150.868 192.892 169.33 192.034 191.96ZM237.183 130.243C270.651 131.463 304.007 134.836 337.044 140.341C384.837 148.734 439.978 166.866 446.083 168.9C448.61 169.751 450.754 171.473 452.131 173.76C453.509 176.046 454.032 178.748 453.606 181.385C453.18 184.022 451.834 186.421 449.807 188.156C447.78 189.89 445.203 190.848 442.538 190.857C441.332 190.855 440.134 190.657 438.992 190.269C438.406 190.083 380.505 170.834 333.198 162.527C301.351 157.226 269.2 153.964 236.94 152.759C233.959 152.722 231.116 151.502 229.034 149.365C226.952 147.228 225.802 144.351 225.838 141.365C225.874 138.379 227.093 135.53 229.226 133.444C231.359 131.359 234.231 130.207 237.211 130.243H237.183ZM453.203 384.326C452.456 386.568 451.023 388.516 449.109 389.897C447.195 391.277 444.896 392.019 442.538 392.018C441.332 392.021 440.135 391.827 438.992 391.445C438.406 391.244 380.505 372.009 333.198 363.702C301.353 358.393 269.201 355.131 236.94 353.934C233.959 353.898 231.116 352.677 229.034 350.54C226.952 348.404 225.802 345.526 225.838 342.54C225.874 339.555 227.093 336.705 229.226 334.62C231.359 332.534 234.231 331.383 237.211 331.419C270.679 332.606 304.035 335.955 337.072 341.445C384.865 349.823 440.007 367.97 446.112 370.004C448.941 370.957 451.276 372.997 452.606 375.674C453.936 378.351 454.15 381.448 453.203 384.284V384.326Z"/>
  </g>
</svg>
